<svg xmlns="http://www.w3.org/2000/svg" width="760" height="300" viewBox="0 0 760 300" role="img" aria-label="UD-IQ4_XS on the RTX 3090: --adapt-decay" font-family="-apple-system,BlinkMacSystemFont,'Segoe UI','Noto Sans',Helvetica,Arial,sans-serif">
<title>UD-IQ4_XS on the RTX 3090: --adapt-decay</title>
<line x1="54" y1="260.0" x2="610" y2="260.0" stroke="#3d444d" stroke-width="1"/>
<text x="46" y="264.0" font-size="11" fill="#9198a1" text-anchor="end">60</text>
<line x1="54" y1="183.3" x2="610" y2="183.3" stroke="#3d444d" stroke-width="1"/>
<text x="46" y="187.3" font-size="11" fill="#9198a1" text-anchor="end">70</text>
<line x1="54" y1="106.7" x2="610" y2="106.7" stroke="#3d444d" stroke-width="1"/>
<text x="46" y="110.7" font-size="11" fill="#9198a1" text-anchor="end">80</text>
<line x1="54" y1="30.0" x2="610" y2="30.0" stroke="#3d444d" stroke-width="1"/>
<text x="46" y="34.0" font-size="11" fill="#9198a1" text-anchor="end">90</text>
<text x="54.0" y="280" font-size="11" fill="#9198a1" text-anchor="middle">0.70</text>
<text x="165.2" y="280" font-size="11" fill="#9198a1" text-anchor="middle">0.85</text>
<text x="276.4" y="280" font-size="11" fill="#9198a1" text-anchor="middle">0.92</text>
<text x="387.6" y="280" font-size="11" fill="#9198a1" text-anchor="middle">0.95</text>
<text x="498.8" y="280" font-size="11" fill="#9198a1" text-anchor="middle">0.97</text>
<text x="610.0" y="280" font-size="11" fill="#9198a1" text-anchor="middle">0.99</text>
<text x="332.0" y="296" font-size="12" fill="#9198a1" text-anchor="middle">--adapt-decay (the share of the routing counts kept after each cache update)</text>
<text x="12" y="145.0" font-size="12" fill="#9198a1" text-anchor="middle" transform="rotate(-90 12 145.0)">tokens/s</text>
<path d="M54.0,131.2 L165.2,90.6 L276.4,79.1 L387.6,99.0 L498.8,96.7 L610.0,177.2" fill="none" stroke="#00762c" stroke-width="2" stroke-linejoin="round"/>
<circle cx="54.0" cy="131.2" r="4.5" fill="#00762c" stroke="#0d1117" stroke-width="2"/>
<circle cx="165.2" cy="90.6" r="4.5" fill="#00762c" stroke="#0d1117" stroke-width="2"/>
<circle cx="276.4" cy="79.1" r="4.5" fill="#00762c" stroke="#0d1117" stroke-width="2"/>
<circle cx="387.6" cy="99.0" r="4.5" fill="#00762c" stroke="#0d1117" stroke-width="2"/>
<circle cx="498.8" cy="96.7" r="4.5" fill="#00762c" stroke="#0d1117" stroke-width="2"/>
<circle cx="610.0" cy="177.2" r="4.5" fill="#00762c" stroke="#0d1117" stroke-width="2"/>
<text x="620.0" y="181.2" font-size="12" fill="#f0f6fc"> 70.8</text>
<text x="276.4" y="67.1" font-size="12" fill="#f0f6fc" text-anchor="middle">0.92 (used)</text></svg>
