<svg xmlns="http://www.w3.org/2000/svg" width="760" height="360" viewBox="0 0 760 360" role="img" aria-label="UD-IQ4_XS decode per prompt with 64 GB of RAM" font-family="-apple-system,BlinkMacSystemFont,'Segoe UI','Noto Sans',Helvetica,Arial,sans-serif">
<title>UD-IQ4_XS decode per prompt with 64 GB of RAM</title>
<text x="0" y="16" font-size="15" font-weight="600" fill="#f0f6fc">UD-IQ4_XS · decode per prompt, 64 GB of RAM (tokens/s)</text>
<rect x="0" y="28" width="12" height="12" rx="3" fill="#79a200"/>
<text x="18" y="38" font-size="13" fill="#9198a1">RTX 3090</text>
<rect x="99.2" y="28" width="12" height="12" rx="3" fill="#00762c"/>
<text x="117.2" y="38" font-size="13" fill="#9198a1">RTX 3090 + RTX 5060 Ti</text>
<line x1="180.0" y1="52" x2="180.0" y2="338" stroke="#3d444d" stroke-width="1"/>
<text x="180.0" y="354" font-size="11" fill="#9198a1" text-anchor="middle">0</text>
<line x1="310.0" y1="52" x2="310.0" y2="338" stroke="#3d444d" stroke-width="1"/>
<text x="310.0" y="354" font-size="11" fill="#9198a1" text-anchor="middle">50</text>
<line x1="440.0" y1="52" x2="440.0" y2="338" stroke="#3d444d" stroke-width="1"/>
<text x="440.0" y="354" font-size="11" fill="#9198a1" text-anchor="middle">100</text>
<line x1="570.0" y1="52" x2="570.0" y2="338" stroke="#3d444d" stroke-width="1"/>
<text x="570.0" y="354" font-size="11" fill="#9198a1" text-anchor="middle">150</text>
<line x1="700.0" y1="52" x2="700.0" y2="338" stroke="#3d444d" stroke-width="1"/>
<text x="700.0" y="354" font-size="11" fill="#9198a1" text-anchor="middle">200</text>
<text x="170" y="77.5" font-size="13" fill="#f0f6fc" text-anchor="end">Spanish chat</text>
<path d="M180.0,58.0 h212.3 a4,4 0 0 1 4,4 v6.0 a4,4 0 0 1 -4,4 h-212.3 z" fill="#79a200"/>
<text x="402.3" y="69" font-size="12" fill="#9198a1">83.2</text>
<path d="M180.0,74.0 h244.3 a4,4 0 0 1 4,4 v6.0 a4,4 0 0 1 -4,4 h-244.3 z" fill="#00762c"/>
<text x="434.3" y="85" font-size="12" fill="#9198a1">95.5</text>
<text x="170" y="123.5" font-size="13" fill="#f0f6fc" text-anchor="end">Reasoning</text>
<path d="M180.0,104.0 h223.5 a4,4 0 0 1 4,4 v6.0 a4,4 0 0 1 -4,4 h-223.5 z" fill="#79a200"/>
<text x="413.5" y="115" font-size="12" fill="#9198a1">87.5</text>
<path d="M180.0,120.0 h273.9 a4,4 0 0 1 4,4 v6.0 a4,4 0 0 1 -4,4 h-273.9 z" fill="#00762c"/>
<text x="463.9" y="131" font-size="12" fill="#9198a1">106.9</text>
<text x="170" y="169.5" font-size="13" fill="#f0f6fc" text-anchor="end">After an 18K document</text>
<path d="M180.0,150.0 h172.3 a4,4 0 0 1 4,4 v6.0 a4,4 0 0 1 -4,4 h-172.3 z" fill="#79a200"/>
<text x="362.3" y="161" font-size="12" fill="#9198a1">67.8</text>
<path d="M180.0,166.0 h250.8 a4,4 0 0 1 4,4 v6.0 a4,4 0 0 1 -4,4 h-250.8 z" fill="#00762c"/>
<text x="440.8" y="177" font-size="12" fill="#9198a1">98.0</text>
<text x="170" y="215.5" font-size="13" fill="#f0f6fc" text-anchor="end">Code</text>
<path d="M180.0,196.0 h217.8 a4,4 0 0 1 4,4 v6.0 a4,4 0 0 1 -4,4 h-217.8 z" fill="#79a200"/>
<text x="407.8" y="207" font-size="12" fill="#9198a1">85.3</text>
<path d="M180.0,212.0 h306.7 a4,4 0 0 1 4,4 v6.0 a4,4 0 0 1 -4,4 h-306.7 z" fill="#00762c"/>
<text x="496.7" y="223" font-size="12" fill="#9198a1">119.5</text>
<text x="170" y="261.5" font-size="13" fill="#f0f6fc" text-anchor="end">Edit (3.3K script)</text>
<path d="M180.0,242.0 h294.5 a4,4 0 0 1 4,4 v6.0 a4,4 0 0 1 -4,4 h-294.5 z" fill="#79a200"/>
<text x="484.5" y="253" font-size="12" fill="#9198a1">114.8</text>
<path d="M180.0,258.0 h424.5 a4,4 0 0 1 4,4 v6.0 a4,4 0 0 1 -4,4 h-424.5 z" fill="#00762c"/>
<text x="614.5" y="269" font-size="12" fill="#9198a1">164.8</text>
<text x="170" y="307.5" font-size="13" fill="#f0f6fc" text-anchor="end">After a 5K prompt</text>
<path d="M180.0,288.0 h154.6 a4,4 0 0 1 4,4 v6.0 a4,4 0 0 1 -4,4 h-154.6 z" fill="#79a200"/>
<text x="344.6" y="299" font-size="12" fill="#9198a1">61.0</text>
<path d="M180.0,304.0 h172.8 a4,4 0 0 1 4,4 v6.0 a4,4 0 0 1 -4,4 h-172.8 z" fill="#00762c"/>
<text x="362.8" y="315" font-size="12" fill="#9198a1">68.0</text></svg>
